<svg width="24" height="24" viewBox="0 0 24 24" fill="none" xmlns="http://www.w3.org/2000/svg">
<g id="Group 191">
<circle id="Ellipse 33" cx="12" cy="12" r="12" fill="#28B446"/>
<g id="Group 190">
<g id="Group">
<g id="Group_2">
<path id="Vector" d="M17.4457 8.8087H16.0891L15.3402 7.67826C15.0576 7.25435 14.563 7 14.0543 7H10.9457C10.437 7 9.94239 7.25435 9.65978 7.67826L8.91087 8.8087H7.55435C6.69239 8.8087 6 9.50109 6 10.363V15.8457C6 16.7076 6.69239 17.4 7.55435 17.4H17.4457C18.3076 17.4 19 16.7076 19 15.8457V10.363C19 9.50109 18.3076 8.8087 17.4457 8.8087ZM12.5 16.1283C10.5641 16.1283 8.99565 14.5598 8.99565 12.6239C8.99565 10.688 10.5641 9.1337 12.5 9.1337C14.4359 9.1337 16.0043 10.7022 16.0043 12.638C16.0043 14.5598 14.4359 16.1283 12.5 16.1283ZM17.2478 10.9989C17.2337 10.9989 17.2196 10.9989 17.1913 10.9989H16.6261C16.3717 10.9848 16.1739 10.7728 16.188 10.5185C16.2022 10.2783 16.3859 10.0946 16.6261 10.0804H17.1913C17.4457 10.0663 17.6576 10.2641 17.6717 10.5185C17.6859 10.7728 17.5022 10.9848 17.2478 10.9989Z" fill="white"/>
</g>
</g>
<g id="Group_3">
<g id="Group_4">
<path id="Vector_2" d="M12.5 10.688C11.4261 10.688 10.55 11.5641 10.55 12.638C10.55 13.7119 11.4261 14.5739 12.5 14.5739C13.574 14.5739 14.45 13.6978 14.45 12.6239C14.45 11.5499 13.574 10.688 12.5 10.688Z" fill="white"/>
</g>
</g>
</g>
</g>
</svg>
